<svg xmlns="http://www.w3.org/2000/svg" width="1024" height="1024" viewBox="0 0 1024 1024" fill="none">
  <defs>
    <linearGradient id="bg" x1="140" y1="140" x2="900" y2="920" gradientUnits="userSpaceOnUse">
      <stop offset="0" stop-color="#10202D"/>
      <stop offset="1" stop-color="#0A121A"/>
    </linearGradient>
    <linearGradient id="ring" x1="230" y1="190" x2="780" y2="820" gradientUnits="userSpaceOnUse">
      <stop offset="0" stop-color="#2EC4B6"/>
      <stop offset="1" stop-color="#F97316"/>
    </linearGradient>
    <linearGradient id="glyph" x1="360" y1="300" x2="650" y2="730" gradientUnits="userSpaceOnUse">
      <stop offset="0" stop-color="#F8FBFF"/>
      <stop offset="1" stop-color="#DCE7F5"/>
    </linearGradient>
    <filter id="shadow" x="0" y="0" width="1024" height="1024" filterUnits="userSpaceOnUse" color-interpolation-filters="sRGB">
      <feDropShadow dx="0" dy="14" stdDeviation="18" flood-opacity="0.35"/>
    </filter>
  </defs>

  <rect x="80" y="80" width="864" height="864" rx="220" fill="url(#bg)"/>

  <g filter="url(#shadow)">
    <path d="M512 182C367 182 248 298 248 442C248 632 442 770 487 805C503 817 521 817 537 805C582 770 776 632 776 442C776 298 657 182 512 182Z" fill="url(#ring)"/>
    <circle cx="512" cy="442" r="158" fill="#13283A"/>
    <circle cx="512" cy="442" r="116" fill="#0E1D2B"/>
  </g>

  <path d="M418 316H538C617 316 666 359 666 425C666 481 630 518 570 531L666 676H580L492 540H492V676H418V316ZM492 486H530C570 486 592 466 592 432C592 397 570 377 530 377H492V486Z" fill="url(#glyph)"/>

  <circle cx="512" cy="442" r="18" fill="#F97316"/>
</svg>
